<svg xmlns="http://www.w3.org/2000/svg" height="511pt" version="1.1" viewBox="0 -43 511.99986 511" width="511pt">
<g id="surface1">
<path d="M 316.871094 138.171875 L 256.265625 53.0625 L 255.890625 52.6875 C 244.515625 41.3125 231.710938 32.238281 218.054688 25.464844 C 184.289062 27.59375 151.132812 41.554688 125.328125 67.355469 C 69.078125 123.609375 69.078125 214.808594 125.328125 271.058594 L 129.097656 274.828125 L 318.597656 396.632812 C 321.601562 387.101562 319.332031 376.265625 311.777344 368.710938 L 270.152344 327.085938 L 270.503906 326.730469 L 312.132812 368.355469 C 322.945312 379.167969 340.472656 379.167969 351.285156 368.355469 C 362.097656 357.546875 362.097656 340.015625 351.285156 329.203125 C 362.097656 340.015625 379.628906 340.015625 390.441406 329.203125 C 401.253906 318.390625 401.253906 300.859375 390.441406 290.050781 C 401.253906 300.859375 418.785156 300.859375 429.59375 290.046875 C 440.40625 279.234375 440.40625 261.707031 429.59375 250.894531 Z M 316.871094 138.171875 " style=" stroke:none;fill-rule:nonzero;fill:rgb(98.823529%,77.647059%,61.568627%);fill-opacity:1;" />
<path d="M 470.992188 65.300781 C 467.5625 60.972656 463.859375 56.792969 459.859375 52.792969 C 403.609375 -3.457031 312.40625 -3.457031 256.15625 52.792969 L 187.300781 121.648438 C 174.425781 134.523438 174.425781 155.402344 187.300781 168.277344 C 200.179688 181.152344 221.054688 181.152344 233.929688 168.277344 L 264.089844 138.117188 L 265.988281 138.117188 L 309.507812 94.597656 C 353.175781 50.929688 417.902344 41.167969 470.992188 65.300781 Z M 470.992188 65.300781 " style=" stroke:none;fill-rule:nonzero;fill:rgb(100%,100%,100%);fill-opacity:1;" />
<path d="M 353.386719 112.664062 L 331.03125 131.289062 C 336.210938 128.554688 341.003906 125.046875 345.21875 120.832031 Z M 353.386719 112.664062 " style=" stroke:none;fill-rule:nonzero;fill:rgb(98.823529%,77.647059%,61.568627%);fill-opacity:1;" />
<path d="M 331.03125 131.289062 L 353.386719 112.664062 L 345.21875 120.832031 C 341.003906 125.046875 336.210938 128.554688 331.03125 131.289062 L 317.835938 142.28125 L 435.714844 260.160156 L 440.464844 275.890625 L 459.859375 256.496094 C 512.109375 204.246094 515.8125 121.839844 470.992188 65.300781 C 417.898438 41.171875 353.175781 50.929688 309.507812 94.597656 L 265.988281 138.117188 L 303.484375 138.117188 C 313.175781 138.117188 322.617188 135.730469 331.03125 131.289062 Z M 331.03125 131.289062 " style=" stroke:none;fill-rule:nonzero;fill:rgb(98.823529%,77.647059%,61.568627%);fill-opacity:1;" />
<path d="M 203.707031 346.578125 L 186.46875 363.8125 C 175.660156 374.625 175.660156 392.15625 186.46875 402.964844 C 197.28125 413.777344 214.8125 413.777344 225.625 402.964844 L 242.859375 385.730469 C 253.671875 374.921875 253.671875 357.390625 242.859375 346.578125 C 232.046875 335.765625 214.519531 335.765625 203.707031 346.578125 Z M 203.707031 346.578125 " style=" stroke:none;fill-rule:nonzero;fill:rgb(98.823529%,77.647059%,61.568627%);fill-opacity:1;" />
<path d="M 164.550781 307.425781 L 147.316406 324.660156 C 136.503906 335.472656 136.503906 353 147.316406 363.8125 C 158.128906 374.625 175.660156 374.625 186.46875 363.8125 L 203.707031 346.578125 C 214.515625 335.765625 214.515625 318.238281 203.707031 307.425781 C 192.894531 296.613281 175.363281 296.613281 164.550781 307.425781 Z M 164.550781 307.425781 " style=" stroke:none;fill-rule:nonzero;fill:rgb(98.823529%,77.647059%,61.568627%);fill-opacity:1;" />
<path d="M 125.398438 268.269531 L 108.164062 285.503906 C 97.351562 296.316406 97.351562 313.847656 108.164062 324.660156 C 118.972656 335.46875 136.503906 335.46875 147.316406 324.660156 L 164.550781 307.421875 C 175.363281 296.613281 175.363281 279.082031 164.550781 268.269531 C 153.738281 257.457031 136.207031 257.457031 125.398438 268.269531 Z M 125.398438 268.269531 " style=" stroke:none;fill-rule:nonzero;fill:rgb(98.823529%,77.647059%,61.568627%);fill-opacity:1;" />
<path d="M 86.242188 229.117188 L 69.007812 246.351562 C 58.195312 257.164062 58.195312 274.691406 69.007812 285.503906 C 79.820312 296.316406 97.351562 296.316406 108.164062 285.503906 L 125.398438 268.269531 C 136.207031 257.457031 136.207031 239.929688 125.398438 229.117188 C 114.585938 218.304688 97.054688 218.304688 86.242188 229.117188 Z M 86.242188 229.117188 " style=" stroke:none;fill-rule:nonzero;fill:rgb(98.823529%,77.647059%,61.568627%);fill-opacity:1;" />
<path d="M 460.6875 42.40625 C 458.050781 42.40625 455.480469 43.46875 453.609375 45.339844 C 451.75 47.199219 450.6875 49.769531 450.6875 52.410156 C 450.6875 55.039062 451.75 57.621094 453.609375 59.480469 C 455.480469 61.339844 458.050781 62.410156 460.6875 62.410156 C 463.320312 62.410156 465.890625 61.339844 467.761719 59.480469 C 469.621094 57.621094 470.679688 55.039062 470.679688 52.410156 C 470.679688 49.769531 469.621094 47.199219 467.761719 45.339844 C 465.890625 43.46875 463.320312 42.40625 460.6875 42.40625 Z M 460.6875 42.40625 " style=" stroke:none;fill-rule:nonzero;fill:rgb(0%,0%,0%);fill-opacity:1;" />
<path d="M 231 277.933594 C 228.359375 277.933594 225.789062 278.996094 223.921875 280.863281 C 222.0625 282.722656 221 285.296875 221 287.933594 C 221 290.566406 222.0625 293.144531 223.921875 295.003906 C 225.789062 296.867188 228.359375 297.9375 231 297.9375 C 233.632812 297.9375 236.199219 296.867188 238.070312 295.003906 C 239.929688 293.144531 240.992188 290.566406 240.992188 287.933594 C 240.992188 285.292969 239.929688 282.722656 238.070312 280.863281 C 236.203125 278.996094 233.632812 277.933594 231 277.933594 Z M 231 277.933594 " style=" stroke:none;fill-rule:nonzero;fill:rgb(0%,0%,0%);fill-opacity:1;" />
<path d="M 491.984375 78.550781 C 489.253906 73.75 483.144531 72.074219 478.347656 74.800781 C 473.542969 77.53125 471.867188 83.636719 474.597656 88.4375 C 504.300781 140.675781 495.335938 206.878906 452.785156 249.425781 L 445.203125 257.007812 C 443.371094 252.199219 440.535156 247.691406 436.667969 243.824219 L 333.910156 141.070312 C 340.632812 137.765625 346.839844 133.351562 352.292969 127.902344 L 372 108.191406 C 375.902344 104.289062 375.902344 97.953125 372 94.050781 C 368.09375 90.144531 361.761719 90.144531 357.855469 94.050781 L 338.148438 113.757812 C 328.886719 123.015625 316.578125 128.117188 303.484375 128.117188 L 264.089844 128.117188 C 261.4375 128.117188 258.894531 129.171875 257.015625 131.046875 L 226.855469 161.203125 C 217.902344 170.160156 203.328125 170.160156 194.371094 161.203125 C 185.414062 152.25 185.414062 137.675781 194.371094 128.71875 L 263.226562 59.863281 C 305.304688 17.785156 371 8.53125 422.976562 37.363281 C 427.804688 40.039062 433.894531 38.296875 436.570312 33.464844 C 439.25 28.636719 437.507812 22.546875 432.675781 19.867188 C 404.007812 3.96875 370.234375 -2.394531 337.566406 1.957031 C 306.992188 6.03125 279.007812 18.828125 256.070312 39.140625 C 227.894531 14.160156 192.019531 0.5 154.039062 0.5 C 112.894531 0.5 74.210938 16.523438 45.117188 45.617188 C 16.023438 74.710938 0 113.394531 0 154.542969 C 0 195.6875 16.023438 234.371094 45.117188 263.464844 L 48.886719 267.234375 C 49.542969 267.890625 50.269531 268.425781 51.039062 268.859375 C 51.707031 277.511719 55.335938 285.976562 61.9375 292.578125 C 69.285156 299.925781 78.933594 303.597656 88.585938 303.597656 C 89.085938 303.597656 89.589844 303.582031 90.089844 303.5625 C 90.070312 304.070312 90.050781 304.574219 90.050781 305.082031 C 90.050781 315.148438 93.972656 324.613281 101.089844 331.730469 C 108.4375 339.078125 118.085938 342.753906 127.738281 342.753906 C 128.238281 342.753906 128.742188 342.734375 129.242188 342.714844 C 129.222656 343.222656 129.207031 343.726562 129.207031 344.238281 C 129.207031 354.304688 133.125 363.765625 140.246094 370.886719 C 147.59375 378.230469 157.242188 381.90625 166.894531 381.90625 C 167.402344 381.90625 167.90625 381.890625 168.414062 381.871094 C 168.007812 392.019531 171.667969 402.304688 179.398438 410.039062 C 186.515625 417.15625 195.980469 421.078125 206.046875 421.078125 C 216.113281 421.078125 225.578125 417.15625 232.695312 410.039062 L 246.671875 396.0625 L 265.550781 414.9375 C 272.667969 422.058594 282.132812 425.976562 292.199219 425.976562 C 302.265625 425.976562 311.730469 422.058594 318.847656 414.941406 C 326.675781 407.113281 330.332031 396.671875 329.820312 386.402344 C 330.449219 386.433594 331.078125 386.453125 331.707031 386.453125 C 341.359375 386.453125 351.011719 382.777344 358.359375 375.429688 C 366.085938 367.703125 369.742188 357.425781 369.339844 347.277344 C 369.847656 347.296875 370.355469 347.316406 370.863281 347.316406 C 380.929688 347.316406 390.394531 343.394531 397.511719 336.277344 C 405.238281 328.546875 408.898438 318.269531 408.496094 308.125 C 409 308.144531 409.507812 308.160156 410.015625 308.160156 C 420.082031 308.160156 429.546875 304.242188 436.664062 297.125 C 440.28125 293.507812 443 289.332031 444.835938 284.875 C 445.8125 284.402344 446.726562 283.769531 447.535156 282.960938 L 466.929688 263.570312 C 515.824219 214.675781 526.125 138.59375 491.984375 78.550781 Z M 88.585938 283.613281 C 83.859375 283.613281 79.421875 281.773438 76.078125 278.433594 C 72.738281 275.089844 70.898438 270.652344 70.898438 265.925781 C 70.898438 261.203125 72.738281 256.761719 76.082031 253.421875 L 93.3125 236.1875 C 96.652344 232.847656 101.09375 231.007812 105.820312 231.007812 C 110.542969 231.007812 114.984375 232.847656 118.324219 236.1875 C 125.222656 243.082031 125.222656 254.300781 118.324219 261.199219 L 101.089844 278.433594 C 97.75 281.773438 93.308594 283.613281 88.585938 283.613281 Z M 115.234375 317.585938 C 111.894531 314.246094 110.054688 309.804688 110.054688 305.082031 C 110.054688 300.359375 111.894531 295.917969 115.234375 292.578125 L 132.46875 275.34375 C 132.46875 275.34375 132.46875 275.34375 132.46875 275.339844 C 135.808594 272 140.25 270.164062 144.972656 270.164062 C 149.699219 270.164062 154.140625 272 157.480469 275.34375 C 164.375 282.238281 164.375 293.457031 157.480469 300.351562 L 140.246094 317.585938 C 133.347656 324.480469 122.128906 324.480469 115.234375 317.585938 Z M 154.386719 356.742188 C 151.046875 353.402344 149.207031 348.960938 149.207031 344.234375 C 149.207031 339.511719 151.046875 335.070312 154.386719 331.730469 L 171.625 314.496094 C 174.964844 311.15625 179.402344 309.316406 184.128906 309.316406 C 188.851562 309.316406 193.292969 311.15625 196.632812 314.496094 C 203.527344 321.390625 203.527344 332.609375 196.632812 339.507812 L 179.398438 356.742188 C 172.503906 363.636719 161.285156 363.636719 154.386719 356.742188 Z M 218.550781 395.898438 C 215.210938 399.238281 210.773438 401.078125 206.046875 401.078125 C 201.324219 401.078125 196.882812 399.238281 193.542969 395.898438 C 186.648438 389 186.648438 377.78125 193.542969 370.886719 L 210.777344 353.652344 C 210.777344 353.652344 210.777344 353.652344 210.777344 353.648438 C 214.117188 350.308594 218.558594 348.46875 223.28125 348.46875 C 228.003906 348.46875 232.445312 350.308594 235.785156 353.652344 C 239.128906 356.992188 240.96875 361.433594 240.96875 366.15625 C 240.96875 370.878906 239.128906 375.320312 235.785156 378.660156 Z M 422.523438 282.976562 C 419.183594 286.320312 414.742188 288.160156 410.015625 288.160156 C 405.292969 288.160156 400.851562 286.320312 397.511719 282.976562 L 355.886719 241.351562 C 355.882812 241.347656 355.882812 241.347656 355.878906 241.347656 L 316.730469 202.195312 C 312.824219 198.292969 306.492188 198.292969 302.585938 202.195312 C 298.679688 206.101562 298.679688 212.433594 302.585938 216.339844 L 383.367188 297.121094 C 390.261719 304.015625 390.261719 315.234375 383.367188 322.132812 C 380.027344 325.472656 375.585938 327.3125 370.863281 327.3125 C 366.136719 327.3125 361.699219 325.472656 358.359375 322.132812 L 277.574219 241.351562 C 273.667969 237.445312 267.339844 237.445312 263.433594 241.351562 C 259.527344 245.257812 259.527344 251.589844 263.433594 255.496094 L 302.578125 294.640625 C 302.582031 294.640625 302.582031 294.648438 302.585938 294.648438 L 344.214844 336.277344 C 351.109375 343.171875 351.109375 354.390625 344.214844 361.289062 C 337.320312 368.183594 326.097656 368.183594 319.203125 361.289062 L 277.574219 319.660156 C 276.804688 318.890625 275.941406 318.277344 275.019531 317.8125 L 263.148438 305.941406 C 259.242188 302.035156 252.910156 302.035156 249.003906 305.941406 C 245.097656 309.84375 245.097656 316.175781 249.003906 320.082031 L 304.703125 375.785156 C 311.601562 382.679688 311.601562 393.898438 304.703125 400.796875 C 301.363281 404.136719 296.921875 405.976562 292.199219 405.976562 C 287.476562 405.976562 283.035156 404.136719 279.695312 400.796875 L 258.5 379.601562 C 260.113281 375.363281 260.96875 370.828125 260.96875 366.15625 C 260.96875 356.089844 257.046875 346.625 249.929688 339.507812 C 242.8125 332.390625 233.347656 328.46875 223.28125 328.46875 C 222.773438 328.46875 222.265625 328.488281 221.761719 328.507812 C 222.160156 318.359375 218.503906 308.082031 210.777344 300.355469 C 203.65625 293.238281 194.191406 289.316406 184.128906 289.316406 C 183.617188 289.316406 183.113281 289.332031 182.605469 289.351562 C 183.007812 279.207031 179.351562 268.929688 171.621094 261.199219 C 164.503906 254.082031 155.039062 250.164062 144.972656 250.164062 C 144.464844 250.164062 143.957031 250.179688 143.453125 250.199219 C 143.855469 240.054688 140.195312 229.777344 132.46875 222.046875 C 117.773438 207.351562 93.863281 207.351562 79.167969 222.046875 L 61.9375 239.28125 C 59.761719 241.453125 57.917969 243.832031 56.386719 246.351562 C 32.894531 221.398438 20 188.960938 20 154.542969 C 20 118.738281 33.945312 85.078125 59.261719 59.761719 C 84.578125 34.445312 118.238281 20.503906 154.042969 20.503906 C 186.578125 20.503906 217.34375 32.019531 241.6875 53.121094 L 180.230469 114.578125 C 172.113281 122.695312 167.644531 133.484375 167.644531 144.964844 C 167.644531 156.441406 172.113281 167.234375 180.230469 175.351562 C 188.605469 183.726562 199.613281 187.917969 210.617188 187.917969 C 221.621094 187.917969 232.625 183.726562 241.003906 175.351562 L 268.234375 148.117188 L 303.488281 148.117188 C 306.398438 148.117188 309.277344 147.917969 312.121094 147.566406 L 422.523438 257.96875 C 429.417969 264.863281 429.417969 276.082031 422.523438 282.976562 Z M 422.523438 282.976562 " style=" stroke:none;fill-rule:nonzero;fill:rgb(0%,0%,0%);fill-opacity:1;" />
</g>
</svg>